<svg width="95" height="78" viewBox="0 0 95 78" fill="none" xmlns="http://www.w3.org/2000/svg">
<path fill-rule="evenodd" clip-rule="evenodd" d="M43.4345 59.2962V68H35.7065V35.312H43.4345V52.4485L50.4425 44.48H59.0345L49.4323 55.5048L59.3225 68H50.2985L43.4345 59.2962ZM62.9836 67.52C64.1036 68 65.3036 68.24 66.5836 68.24C66.9996 68.24 67.4636 68.224 67.9756 68.192C68.5196 68.16 68.9356 68.112 69.2236 68.048V60.704C68.5196 60.704 67.9596 60.544 67.5436 60.224C67.1596 59.872 66.9676 59.088 66.9676 57.872V35.312H59.2396V60.608C59.2396 62.464 59.5756 63.952 60.2476 65.072C60.9516 66.192 61.8636 67.008 62.9836 67.52ZM81.423 57.293L86.8685 44.48H94.6925L80.8205 77.12H72.9965L77.5239 66.4672L68.1485 44.48H75.9725L81.423 57.293Z" fill="#004FFF"/>
<path fill-rule="evenodd" clip-rule="evenodd" d="M0.174866 0.312012V33H13.0869C16.8309 33 19.6309 32.232 21.4869 30.696C23.3749 29.16 24.3189 26.856 24.3189 23.784C24.3189 22.376 24.0309 21.08 23.4549 19.896C22.9109 18.68 22.0469 17.72 20.8629 17.016C20.4831 16.7902 20.0688 16.6006 19.6199 16.4473C19.7816 16.371 19.9399 16.2886 20.0949 16.2C21.2149 15.528 22.0949 14.616 22.7349 13.464C23.3749 12.28 23.6949 10.92 23.6949 9.38401C23.6949 7.40001 23.3269 5.73601 22.5909 4.39201C21.8869 3.04801 20.6869 2.04001 18.9909 1.36801C17.3269 0.664012 15.0709 0.312012 12.2229 0.312012H0.174866ZM7.95086 7.75201V13.224H12.3189C13.4389 13.224 14.2869 13 14.8629 12.552C15.4389 12.104 15.7269 11.416 15.7269 10.488C15.7269 9.59201 15.4389 8.92001 14.8629 8.47201C14.2869 7.99201 13.4389 7.75201 12.3189 7.75201H7.95086ZM7.95086 19.8V25.56H12.8949C13.9509 25.56 14.7989 25.32 15.4389 24.84C16.0789 24.328 16.3989 23.608 16.3989 22.68C16.3989 21.72 16.0949 21 15.4869 20.52C14.8789 20.04 14.0469 19.8 12.9909 19.8H7.95086ZM29.8861 32.52C31.0061 33 32.2061 33.24 33.4861 33.24C33.9021 33.24 34.3661 33.224 34.8781 33.192C35.4221 33.16 35.8381 33.112 36.1261 33.048V26.5198C36.2253 27.7502 36.5671 28.8703 37.1517 29.88C37.8877 31.064 38.8957 31.992 40.1757 32.664C41.4557 33.304 42.9277 33.624 44.5917 33.624C47.0557 33.624 48.9917 33.064 50.3997 31.944C50.5822 31.798 50.757 31.6456 50.9241 31.4867L51.4077 33H57.9357V18.6C57.9357 16.616 57.5517 14.904 56.7837 13.464C56.0157 11.992 54.8637 10.856 53.3277 10.056C51.8237 9.25601 49.9677 8.85601 47.7597 8.85601C45.9357 8.85601 44.1757 9.09601 42.4797 9.57601C40.7837 10.024 39.2317 10.6 37.8237 11.304L40.0317 16.824C41.2797 16.216 42.4637 15.8 43.5837 15.576C44.7037 15.352 45.6957 15.24 46.5597 15.24C47.7757 15.24 48.6717 15.528 49.2477 16.104C49.8237 16.68 50.1117 17.368 50.1117 18.168V19.3098C48.6822 18.3566 46.8742 17.88 44.6877 17.88C43.1197 17.88 41.6797 18.2 40.3677 18.84C39.0877 19.448 38.0477 20.344 37.2477 21.528C36.4872 22.6689 36.1032 24.0609 36.0958 25.7039C35.406 25.6994 34.8561 25.5394 34.4461 25.224C34.0621 24.872 33.8701 24.088 33.8701 22.872V0.312012H26.1421V25.608C26.1421 27.464 26.4781 28.952 27.1501 30.072C27.8541 31.192 28.7661 32.008 29.8861 32.52ZM49.3917 27.624C48.8477 28.104 48.1277 28.344 47.2317 28.344C46.2717 28.344 45.5197 28.104 44.9757 27.624C44.4637 27.144 44.2077 26.52 44.2077 25.752C44.2077 25.016 44.4637 24.408 44.9757 23.928C45.5197 23.448 46.2717 23.208 47.2317 23.208C48.1277 23.208 48.8477 23.448 49.3917 23.928C49.9357 24.408 50.2077 25.016 50.2077 25.752C50.2077 26.52 49.9357 27.144 49.3917 27.624ZM78.8011 9.67201C77.8091 9.12801 76.5291 8.85601 74.9611 8.85601C73.5531 8.85601 72.2091 9.11201 70.9291 9.62401C69.6811 10.104 68.5131 10.744 67.4251 11.544C67.195 11.7114 66.971 11.8818 66.753 12.0552L65.9371 9.48001H60.1771V33H67.9531V18.4897C68.2891 18.2112 68.6251 17.96 68.9611 17.736C69.5691 17.32 70.1771 17.016 70.7851 16.824C71.3931 16.6 71.9691 16.488 72.5131 16.488C73.2491 16.488 73.8091 16.68 74.1931 17.064C74.5771 17.448 74.7691 18.248 74.7691 19.464V33H82.5451V18.552C82.5451 17.304 82.4331 16.104 82.2091 14.952C82.0171 13.8 81.6491 12.776 81.1051 11.88C80.5611 10.952 79.7931 10.216 78.8011 9.67201Z" fill="#9CFCFF"/>
<path fill-rule="evenodd" clip-rule="evenodd" d="M0.174866 0.312012V33H13.0869C16.8309 33 19.6309 32.232 21.4869 30.696C23.3749 29.16 24.3189 26.856 24.3189 23.784C24.3189 22.376 24.0309 21.08 23.4549 19.896C22.9109 18.68 22.0469 17.72 20.8629 17.016C20.4831 16.7902 20.0688 16.6006 19.6199 16.4473C19.7816 16.371 19.9399 16.2886 20.0949 16.2C21.2149 15.528 22.0949 14.616 22.7349 13.464C23.3749 12.28 23.6949 10.92 23.6949 9.38401C23.6949 7.40001 23.3269 5.73601 22.5909 4.39201C21.8869 3.04801 20.6869 2.04001 18.9909 1.36801C17.3269 0.664012 15.0709 0.312012 12.2229 0.312012H0.174866ZM7.95086 7.75201V13.224H12.3189C13.4389 13.224 14.2869 13 14.8629 12.552C15.4389 12.104 15.7269 11.416 15.7269 10.488C15.7269 9.59201 15.4389 8.92001 14.8629 8.47201C14.2869 7.99201 13.4389 7.75201 12.3189 7.75201H7.95086ZM7.95086 19.8V25.56H12.8949C13.9509 25.56 14.7989 25.32 15.4389 24.84C16.0789 24.328 16.3989 23.608 16.3989 22.68C16.3989 21.72 16.0949 21 15.4869 20.52C14.8789 20.04 14.0469 19.8 12.9909 19.8H7.95086ZM29.8861 32.52C31.0061 33 32.2061 33.24 33.4861 33.24C33.9021 33.24 34.3661 33.224 34.8781 33.192C35.4221 33.16 35.8381 33.112 36.1261 33.048V26.5198C36.2253 27.7502 36.5671 28.8703 37.1517 29.88C37.8877 31.064 38.8957 31.992 40.1757 32.664C41.4557 33.304 42.9277 33.624 44.5917 33.624C47.0557 33.624 48.9917 33.064 50.3997 31.944C50.5822 31.798 50.757 31.6456 50.9241 31.4867L51.4077 33H57.9357V18.6C57.9357 16.616 57.5517 14.904 56.7837 13.464C56.0157 11.992 54.8637 10.856 53.3277 10.056C51.8237 9.25601 49.9677 8.85601 47.7597 8.85601C45.9357 8.85601 44.1757 9.09601 42.4797 9.57601C40.7837 10.024 39.2317 10.6 37.8237 11.304L40.0317 16.824C41.2797 16.216 42.4637 15.8 43.5837 15.576C44.7037 15.352 45.6957 15.24 46.5597 15.24C47.7757 15.24 48.6717 15.528 49.2477 16.104C49.8237 16.68 50.1117 17.368 50.1117 18.168V19.3098C48.6822 18.3566 46.8742 17.88 44.6877 17.88C43.1197 17.88 41.6797 18.2 40.3677 18.84C39.0877 19.448 38.0477 20.344 37.2477 21.528C36.4872 22.6689 36.1032 24.0609 36.0958 25.7039C35.406 25.6994 34.8561 25.5394 34.4461 25.224C34.0621 24.872 33.8701 24.088 33.8701 22.872V0.312012H26.1421V25.608C26.1421 27.464 26.4781 28.952 27.1501 30.072C27.8541 31.192 28.7661 32.008 29.8861 32.52ZM49.3917 27.624C48.8477 28.104 48.1277 28.344 47.2317 28.344C46.2717 28.344 45.5197 28.104 44.9757 27.624C44.4637 27.144 44.2077 26.52 44.2077 25.752C44.2077 25.016 44.4637 24.408 44.9757 23.928C45.5197 23.448 46.2717 23.208 47.2317 23.208C48.1277 23.208 48.8477 23.448 49.3917 23.928C49.9357 24.408 50.2077 25.016 50.2077 25.752C50.2077 26.52 49.9357 27.144 49.3917 27.624ZM78.8011 9.67201C77.8091 9.12801 76.5291 8.85601 74.9611 8.85601C73.5531 8.85601 72.2091 9.11201 70.9291 9.62401C69.6811 10.104 68.5131 10.744 67.4251 11.544C67.195 11.7114 66.971 11.8818 66.753 12.0552L65.9371 9.48001H60.1771V33H67.9531V18.4897C68.2891 18.2112 68.6251 17.96 68.9611 17.736C69.5691 17.32 70.1771 17.016 70.7851 16.824C71.3931 16.6 71.9691 16.488 72.5131 16.488C73.2491 16.488 73.8091 16.68 74.1931 17.064C74.5771 17.448 74.7691 18.248 74.7691 19.464V33H82.5451V18.552C82.5451 17.304 82.4331 16.104 82.2091 14.952C82.0171 13.8 81.6491 12.776 81.1051 11.88C80.5611 10.952 79.7931 10.216 78.8011 9.67201Z" fill="#004FFF"/>
</svg>
