<svg width="389" height="425" viewBox="0 0 389 425" fill="none" xmlns="http://www.w3.org/2000/svg">
<g clip-path="url(#clip0_18_120)">
<path d="M39.8054 358.025L36.1599 343.307C29.6963 340.503 23.0834 338.074 16.3525 336.032L15.8924 342.873L14.0263 335.337C5.67886 332.894 0 331.819 0 331.819C0 331.819 7.66888 361.679 23.7591 384.507L42.5057 387.879L27.942 390.028C29.966 392.521 32.1411 394.882 34.4544 397.095C57.8584 419.334 83.9266 429.537 92.6785 419.885C101.431 410.232 89.5526 384.379 66.1486 362.143C58.8932 355.249 49.7789 349.716 40.6551 345.361L39.8054 358.025Z" fill="#073BB0"/>
<path d="M74.4744 342.039L78.7856 327.51C74.6688 321.69 70.2346 316.111 65.504 310.802L61.6562 316.414L63.8635 308.975C57.9501 302.469 53.6317 298.545 53.6317 298.545C53.6317 298.545 45.1209 328.165 47.3659 356.22L61.7118 369.026L48.1567 363.16C48.631 366.365 49.3018 369.537 50.1651 372.656C58.971 404.078 76.1343 426.607 88.5001 422.975C100.866 419.343 103.752 390.927 94.9464 359.505C92.2167 349.764 87.2075 340.205 81.5964 331.65L74.4744 342.039Z" fill="#0444D1"/>
<path d="M288.834 100.683H286.56V36.9109C286.56 32.0637 285.628 27.2639 283.816 22.7857C282.004 18.3075 279.348 14.2384 276 10.8109C272.651 7.38346 268.677 4.66462 264.302 2.80967C259.927 0.954725 255.239 0 250.504 0H118.517C108.954 0 99.7832 3.88881 93.0213 10.8109C86.2594 17.7331 82.4606 27.1215 82.4606 36.9109V386.774C82.4606 391.622 83.3932 396.421 85.2052 400.9C87.0172 405.378 89.6731 409.447 93.0213 412.874C96.3695 416.302 100.344 419.021 104.719 420.876C109.093 422.731 113.782 423.685 118.517 423.685H250.504C260.066 423.685 269.237 419.796 275.999 412.874C282.761 405.952 286.56 396.564 286.56 386.774V146.077H288.834L288.834 100.683Z" fill="#2F2E41"/>
<path d="M251.959 9.59937H234.731C235.524 11.588 235.826 13.7455 235.612 15.8819C235.398 18.0183 234.674 20.0681 233.503 21.8505C232.333 23.6329 230.753 25.0934 228.901 26.1031C227.049 27.1129 224.984 27.641 222.886 27.6409H147.272C145.174 27.6408 143.109 27.1126 141.257 26.1027C139.406 25.0929 137.825 23.6324 136.655 21.85C135.485 20.0676 134.761 18.018 134.547 15.8816C134.333 13.7453 134.635 11.5879 135.428 9.59937H119.336C112.195 9.59937 105.346 12.5035 100.296 17.6729C95.2465 22.8423 92.4095 29.8534 92.4095 37.1641V386.52C92.4095 393.83 95.2465 400.841 100.296 406.011C105.346 411.18 112.195 414.084 119.336 414.084H251.959C259.1 414.084 265.949 411.18 270.999 406.011C276.048 400.841 278.885 393.83 278.885 386.52V37.1635C278.885 29.853 276.048 22.8419 270.998 17.6727C265.949 12.5034 259.1 9.59937 251.959 9.59937Z" fill="white"/>
<path d="M168.748 148.765C168.747 146.323 169.375 143.924 170.568 141.809C171.762 139.695 173.478 137.939 175.544 136.719C173.479 135.498 171.136 134.855 168.75 134.855C166.365 134.854 164.022 135.497 161.956 136.718C159.89 137.938 158.175 139.694 156.982 141.809C155.79 143.923 155.162 146.322 155.162 148.764C155.162 151.206 155.79 153.604 156.982 155.719C158.175 157.834 159.89 159.59 161.956 160.81C164.022 162.031 166.365 162.673 168.75 162.673C171.136 162.673 173.479 162.03 175.544 160.809C173.478 159.589 171.762 157.834 170.569 155.72C169.376 153.605 168.748 151.207 168.748 148.765Z" fill="#CCCCCC"/>
<path d="M185.829 148.765C185.828 146.323 186.456 143.924 187.649 141.809C188.843 139.695 190.559 137.939 192.625 136.719C190.56 135.498 188.217 134.855 185.831 134.855C183.446 134.854 181.103 135.497 179.037 136.718C176.971 137.938 175.256 139.694 174.063 141.809C172.871 143.923 172.243 146.322 172.243 148.764C172.243 151.206 172.871 153.604 174.063 155.719C175.256 157.834 176.971 159.59 179.037 160.81C181.103 162.031 183.446 162.673 185.831 162.673C188.217 162.673 190.56 162.03 192.625 160.809C190.559 159.589 188.843 157.834 187.65 155.72C186.457 153.605 185.829 151.207 185.829 148.765Z" fill="#CCCCCC"/>
<path d="M202.522 162.673C210.026 162.673 216.109 156.446 216.109 148.764C216.109 141.082 210.026 134.855 202.522 134.855C195.018 134.855 188.935 141.082 188.935 148.764C188.935 156.446 195.018 162.673 202.522 162.673Z" fill="#004FFF"/>
<path d="M225.23 192.208H146.04C145.286 192.207 144.563 191.9 144.03 191.355C143.497 190.809 143.197 190.069 143.197 189.297V108.231C143.197 107.46 143.497 106.72 144.03 106.174C144.563 105.628 145.286 105.321 146.04 105.32H225.23C225.984 105.321 226.706 105.628 227.24 106.174C227.773 106.72 228.072 107.46 228.073 108.231V189.297C228.072 190.069 227.773 190.809 227.24 191.355C226.706 191.9 225.984 192.207 225.23 192.208ZM146.04 106.485C145.588 106.486 145.154 106.67 144.834 106.997C144.514 107.325 144.335 107.769 144.334 108.232V189.298C144.335 189.761 144.514 190.205 144.834 190.532C145.154 190.86 145.588 191.044 146.04 191.044H225.23C225.682 191.044 226.116 190.86 226.436 190.532C226.755 190.205 226.935 189.761 226.936 189.298V108.232C226.935 107.769 226.755 107.325 226.436 106.997C226.116 106.67 225.682 106.486 225.23 106.485H146.04Z" fill="#CCCCCC"/>
<path d="M242.912 254.349H121.459V255.514H242.912V254.349Z" fill="#CCCCCC"/>
<path d="M125.294 247.079C127.412 247.079 129.13 245.321 129.13 243.152C129.13 240.984 127.412 239.226 125.294 239.226C123.176 239.226 121.459 240.984 121.459 243.152C121.459 245.321 123.176 247.079 125.294 247.079Z" fill="#004FFF"/>
<path d="M242.912 293.611H121.459V294.776H242.912V293.611Z" fill="#CCCCCC"/>
<path d="M125.294 286.341C127.412 286.341 129.13 284.583 129.13 282.415C129.13 280.246 127.412 278.489 125.294 278.489C123.176 278.489 121.459 280.246 121.459 282.415C121.459 284.583 123.176 286.341 125.294 286.341Z" fill="#004FFF"/>
<path d="M240.689 338.321H202.307C201.644 338.32 201.008 338.05 200.539 337.57C200.07 337.091 199.807 336.44 199.806 335.761V321.99C199.807 321.311 200.07 320.66 200.539 320.18C201.008 319.7 201.644 319.43 202.307 319.43H240.689C241.352 319.43 241.988 319.7 242.456 320.18C242.925 320.66 243.189 321.311 243.19 321.99V335.761C243.189 336.44 242.925 337.091 242.456 337.57C241.988 338.05 241.352 338.32 240.689 338.321Z" fill="#004FFF"/>
<path d="M137.806 247.079C139.924 247.079 141.641 245.321 141.641 243.152C141.641 240.984 139.924 239.226 137.806 239.226C135.687 239.226 133.97 240.984 133.97 243.152C133.97 245.321 135.687 247.079 137.806 247.079Z" fill="#004FFF"/>
<path d="M150.317 247.079C152.435 247.079 154.153 245.321 154.153 243.152C154.153 240.984 152.435 239.226 150.317 239.226C148.199 239.226 146.481 240.984 146.481 243.152C146.481 245.321 148.199 247.079 150.317 247.079Z" fill="#004FFF"/>
<path d="M137.806 286.341C139.924 286.341 141.641 284.583 141.641 282.415C141.641 280.246 139.924 278.489 137.806 278.489C135.687 278.489 133.97 280.246 133.97 282.415C133.97 284.583 135.687 286.341 137.806 286.341Z" fill="#004FFF"/>
<path d="M150.317 286.341C152.435 286.341 154.153 284.583 154.153 282.415C154.153 280.246 152.435 278.489 150.317 278.489C148.199 278.489 146.481 280.246 146.481 282.415C146.481 284.583 148.199 286.341 150.317 286.341Z" fill="#004FFF"/>
<path d="M412.379 425H13.3816C12.5275 425 11.8356 424.689 11.8356 424.307C11.8356 423.925 12.5275 423.614 13.3816 423.614H412.379C413.232 423.614 413.925 423.924 413.925 424.307C413.925 424.69 413.232 425 412.379 425Z" fill="#3F3D56"/>
<path d="M313.8 278.447C314.073 278.574 314.335 278.724 314.584 278.895L339.509 268.004L340.399 261.283L350.358 261.22L349.77 276.636L316.872 285.543C316.802 285.777 316.719 286.006 316.623 286.23C316.147 287.269 315.382 288.141 314.424 288.736C313.466 289.332 312.358 289.624 311.238 289.577C310.118 289.529 309.037 289.144 308.13 288.469C307.223 287.795 306.531 286.861 306.141 285.786C305.751 284.71 305.68 283.54 305.937 282.423C306.194 281.307 306.768 280.293 307.586 279.508C308.405 278.724 309.431 278.205 310.537 278.016C311.642 277.827 312.778 277.977 313.8 278.447Z" fill="#FFB8B8"/>
<path d="M353.98 418.142H347.167L343.926 391.24L353.982 391.241L353.98 418.142Z" fill="#FFB8B8"/>
<path d="M342.301 416.149H355.44V424.617H334.028C334.028 422.371 334.9 420.217 336.451 418.629C338.002 417.041 340.107 416.149 342.301 416.149Z" fill="#2F2E41"/>
<path d="M380.477 416.171L373.697 416.855L367.894 390.408L377.901 389.399L380.477 416.171Z" fill="#FFB8B8"/>
<path d="M368.663 415.36L381.739 414.041L382.55 422.469L361.241 424.618C361.135 423.511 361.242 422.394 361.557 421.329C361.873 420.265 362.39 419.275 363.079 418.415C363.768 417.556 364.616 416.843 365.574 416.319C366.532 415.795 367.582 415.469 368.663 415.36Z" fill="#2F2E41"/>
<path d="M355.877 232.75C363.415 232.75 369.526 226.494 369.526 218.778C369.526 211.061 363.415 204.805 355.877 204.805C348.339 204.805 342.228 211.061 342.228 218.778C342.228 226.494 348.339 232.75 355.877 232.75Z" fill="#FFB8B8"/>
<path d="M345.645 412.701C345.059 412.703 344.492 412.493 344.043 412.108C343.594 411.723 343.293 411.188 343.191 410.598C339.665 390.559 328.138 325.035 327.863 323.22C327.856 323.178 327.854 323.136 327.854 323.094V318.208C327.853 318.03 327.908 317.857 328.009 317.712L329.532 315.529C329.604 315.424 329.699 315.337 329.809 315.275C329.919 315.214 330.042 315.179 330.167 315.173C338.849 314.757 367.28 313.536 368.654 315.292C370.033 317.058 369.546 322.407 369.434 323.461L369.44 323.572L382.213 407.195C382.313 407.862 382.153 408.542 381.766 409.089C381.38 409.635 380.799 410.004 380.149 410.116L372.171 411.461C371.576 411.559 370.968 411.435 370.455 411.112C369.943 410.789 369.56 410.289 369.378 409.702C366.91 401.63 358.636 374.478 355.769 363.971C355.751 363.905 355.71 363.847 355.654 363.809C355.597 363.771 355.529 363.756 355.463 363.765C355.396 363.775 355.335 363.809 355.291 363.862C355.247 363.914 355.223 363.981 355.224 364.05C355.367 374.066 355.713 399.619 355.833 408.444L355.846 409.395C355.851 410.038 355.62 410.66 355.199 411.138C354.778 411.616 354.197 411.915 353.571 411.975L345.878 412.691C345.8 412.698 345.722 412.701 345.645 412.701Z" fill="#2F2E41"/>
<path d="M347.215 238.244C344.833 239.694 343.407 242.357 342.589 245.068C341.075 250.086 340.164 255.275 339.875 260.519L339.011 276.22L328.31 317.845C337.584 325.878 342.934 324.052 355.418 317.482C367.903 310.911 369.329 319.672 369.329 319.672L371.826 284.255L375.393 245.552C374.592 244.565 373.686 243.673 372.691 242.893C369.394 240.269 365.558 238.445 361.473 237.558C357.387 236.672 353.158 236.746 349.105 237.776L347.215 238.244Z" fill="#073BB0"/>
<path d="M343.739 286.853C344.027 286.964 344.306 287.098 344.573 287.254L369.218 274.626L369.627 267.785L379.793 267.068L380.338 282.662L347.403 293.812C347.134 294.993 346.52 296.062 345.643 296.877C344.767 297.692 343.668 298.214 342.494 298.375C341.32 298.535 340.126 298.326 339.071 297.775C338.016 297.223 337.15 296.357 336.588 295.289C336.026 294.222 335.795 293.005 335.925 291.8C336.055 290.595 336.541 289.459 337.317 288.543C338.093 287.627 339.124 286.975 340.271 286.673C341.418 286.371 342.628 286.434 343.739 286.853Z" fill="#FFB8B8"/>
<path d="M375.214 245.729C381.278 247.92 382.346 271.656 382.346 271.656C375.212 267.639 366.652 274.212 366.652 274.212C366.652 274.212 364.868 268.004 362.728 259.971C362.082 257.712 362.005 255.322 362.504 253.023C363.002 250.725 364.061 248.593 365.581 246.826C365.581 246.826 369.15 243.537 375.214 245.729Z" fill="#073BB0"/>
<path d="M368.115 222.473C366.415 221.08 364.095 223.612 364.095 223.612L362.734 211.077C362.734 211.077 354.231 212.12 348.789 210.729C343.347 209.339 342.497 215.778 342.497 215.778C342.216 213.177 342.16 210.555 342.327 207.944C342.667 204.81 347.089 201.677 354.911 199.588C362.734 197.498 366.815 206.551 366.815 206.551C372.258 209.336 369.816 223.866 368.115 222.473Z" fill="#2F2E41"/>
</g>
<defs>
<clipPath id="clip0_18_120">
<rect width="389" height="425" fill="white"/>
</clipPath>
</defs>
</svg>
